%TF.GenerationSoftware,KiCad,Pcbnew,10.0.3*%
%TF.CreationDate,2026-05-25T11:05:43-05:00*%
%TF.ProjectId,FlatSat Breakout,466c6174-5361-4742-9042-7265616b6f75,rev?*%
%TF.SameCoordinates,Original*%
%TF.FileFunction,Soldermask,Top*%
%TF.FilePolarity,Negative*%
%FSLAX46Y46*%
G04 Gerber Fmt 4.6, Leading zero omitted, Abs format (unit mm)*
G04 Created by KiCad (PCBNEW 10.0.3) date 2026-05-25 11:05:43*
%MOMM*%
%LPD*%
G01*
G04 APERTURE LIST*
G04 Aperture macros list*
%AMRoundRect*
0 Rectangle with rounded corners*
0 $1 Rounding radius*
0 $2 $3 $4 $5 $6 $7 $8 $9 X,Y pos of 4 corners*
0 Add a 4 corners polygon primitive as box body*
4,1,4,$2,$3,$4,$5,$6,$7,$8,$9,$2,$3,0*
0 Add four circle primitives for the rounded corners*
1,1,$1+$1,$2,$3*
1,1,$1+$1,$4,$5*
1,1,$1+$1,$6,$7*
1,1,$1+$1,$8,$9*
0 Add four rect primitives between the rounded corners*
20,1,$1+$1,$2,$3,$4,$5,0*
20,1,$1+$1,$4,$5,$6,$7,0*
20,1,$1+$1,$6,$7,$8,$9,0*
20,1,$1+$1,$8,$9,$2,$3,0*%
G04 Aperture macros list end*
%ADD10RoundRect,0.250001X0.949999X-0.949999X0.949999X0.949999X-0.949999X0.949999X-0.949999X-0.949999X0*%
%ADD11C,2.400000*%
%ADD12R,1.700000X1.700000*%
%ADD13C,1.700000*%
%ADD14RoundRect,0.200000X-0.275000X0.200000X-0.275000X-0.200000X0.275000X-0.200000X0.275000X0.200000X0*%
%ADD15C,2.000000*%
%ADD16RoundRect,0.218750X0.256250X-0.218750X0.256250X0.218750X-0.256250X0.218750X-0.256250X-0.218750X0*%
%ADD17R,2.000000X2.000000*%
%ADD18C,3.200000*%
%ADD19RoundRect,0.250001X-0.949999X0.949999X-0.949999X-0.949999X0.949999X-0.949999X0.949999X0.949999X0*%
%ADD20C,10.160000*%
G04 APERTURE END LIST*
D10*
%TO.C,J5*%
X207991358Y-106200000D03*
D11*
X207991358Y-102700000D03*
%TD*%
D12*
%TO.C,J13*%
X183933334Y-73770000D03*
D13*
X183933334Y-76310000D03*
X183933334Y-78850000D03*
X183933334Y-81390000D03*
X183933334Y-83930000D03*
X183933334Y-86470000D03*
X183933334Y-89010000D03*
X183933334Y-91550000D03*
X183933334Y-94090000D03*
X183933334Y-96630000D03*
%TD*%
D14*
%TO.C,R2*%
X132800000Y-115800000D03*
X132800000Y-117450000D03*
%TD*%
D15*
%TO.C,TP18*%
X175400000Y-102200000D03*
%TD*%
D12*
%TO.C,J12*%
X124200000Y-73770000D03*
D13*
X124200000Y-76310000D03*
X124200000Y-78850000D03*
X124200000Y-81390000D03*
X124200000Y-83930000D03*
X124200000Y-86470000D03*
X124200000Y-89010000D03*
X124200000Y-91550000D03*
X124200000Y-94090000D03*
X124200000Y-96630000D03*
%TD*%
D16*
%TO.C,D2*%
X132800000Y-114200000D03*
X132800000Y-112625000D03*
%TD*%
%TO.C,D4*%
X149850000Y-114200000D03*
X149850000Y-112625000D03*
%TD*%
%TO.C,D1*%
X201000000Y-114200000D03*
X201000000Y-112625000D03*
%TD*%
D15*
%TO.C,TP21*%
X124200000Y-136130000D03*
%TD*%
D17*
%TO.C,TP8*%
X166866667Y-107200000D03*
%TD*%
D16*
%TO.C,D6*%
X166900000Y-114200000D03*
X166900000Y-112625000D03*
%TD*%
D14*
%TO.C,R9*%
X192475000Y-115800000D03*
X192475000Y-117450000D03*
%TD*%
D18*
%TO.C,H2*%
X117000000Y-141400000D03*
%TD*%
D15*
%TO.C,TP19*%
X183933334Y-102200000D03*
%TD*%
D16*
%TO.C,D8*%
X183950000Y-114200000D03*
X183950000Y-112625000D03*
%TD*%
D17*
%TO.C,TP4*%
X132733333Y-107200000D03*
%TD*%
D14*
%TO.C,R6*%
X166900000Y-115800000D03*
X166900000Y-117450000D03*
%TD*%
%TO.C,R3*%
X141325000Y-115800000D03*
X141325000Y-117450000D03*
%TD*%
D16*
%TO.C,D3*%
X141325000Y-114200000D03*
X141325000Y-112625000D03*
%TD*%
D12*
%TO.C,J6*%
X141266666Y-73770000D03*
D13*
X141266666Y-76310000D03*
X141266666Y-78850000D03*
X141266666Y-81390000D03*
X141266666Y-83930000D03*
X141266666Y-86470000D03*
X141266666Y-89010000D03*
X141266666Y-91550000D03*
X141266666Y-94090000D03*
X141266666Y-96630000D03*
%TD*%
D12*
%TO.C,J10*%
X175400000Y-73770000D03*
D13*
X175400000Y-76310000D03*
X175400000Y-78850000D03*
X175400000Y-81390000D03*
X175400000Y-83930000D03*
X175400000Y-86470000D03*
X175400000Y-89010000D03*
X175400000Y-91550000D03*
X175400000Y-94090000D03*
X175400000Y-96630000D03*
%TD*%
D15*
%TO.C,TP24*%
X149800000Y-136140000D03*
%TD*%
D18*
%TO.C,H3*%
X208000000Y-75800000D03*
%TD*%
D19*
%TO.C,J4*%
X117200000Y-102700000D03*
D11*
X117200000Y-106200000D03*
%TD*%
D15*
%TO.C,TP17*%
X166866667Y-102200000D03*
%TD*%
D20*
%TO.C,J2*%
X201000000Y-62200000D03*
%TD*%
D12*
%TO.C,J7*%
X149800000Y-73770000D03*
D13*
X149800000Y-76310000D03*
X149800000Y-78850000D03*
X149800000Y-81390000D03*
X149800000Y-83930000D03*
X149800000Y-86470000D03*
X149800000Y-89010000D03*
X149800000Y-91550000D03*
X149800000Y-94090000D03*
X149800000Y-96630000D03*
%TD*%
D12*
%TO.C,J11*%
X201000000Y-73770000D03*
D13*
X201000000Y-76310000D03*
X201000000Y-78850000D03*
X201000000Y-81390000D03*
X201000000Y-83930000D03*
X201000000Y-86470000D03*
X201000000Y-89010000D03*
X201000000Y-91550000D03*
X201000000Y-94090000D03*
X201000000Y-96630000D03*
%TD*%
D17*
%TO.C,TP9*%
X175400000Y-107200000D03*
%TD*%
D12*
%TO.C,J1*%
X132733333Y-73770000D03*
D13*
X132733333Y-76310000D03*
X132733333Y-78850000D03*
X132733333Y-81390000D03*
X132733333Y-83930000D03*
X132733333Y-86470000D03*
X132733333Y-89010000D03*
X132733333Y-91550000D03*
X132733333Y-94090000D03*
X132733333Y-96630000D03*
%TD*%
D15*
%TO.C,TP15*%
X149800000Y-102200000D03*
%TD*%
D12*
%TO.C,J14*%
X192466667Y-73770000D03*
D13*
X192466667Y-76310000D03*
X192466667Y-78850000D03*
X192466667Y-81390000D03*
X192466667Y-83930000D03*
X192466667Y-86470000D03*
X192466667Y-89010000D03*
X192466667Y-91550000D03*
X192466667Y-94090000D03*
X192466667Y-96630000D03*
%TD*%
D15*
%TO.C,TP22*%
X132733333Y-136200000D03*
%TD*%
D17*
%TO.C,TP11*%
X192466667Y-107200000D03*
%TD*%
D15*
%TO.C,TP1*%
X124200000Y-102200000D03*
%TD*%
D17*
%TO.C,TP7*%
X158333333Y-107200000D03*
%TD*%
D16*
%TO.C,D7*%
X175425000Y-114200000D03*
X175425000Y-112625000D03*
%TD*%
D12*
%TO.C,J9*%
X166866667Y-73770000D03*
D13*
X166866667Y-76310000D03*
X166866667Y-78850000D03*
X166866667Y-81390000D03*
X166866667Y-83930000D03*
X166866667Y-86470000D03*
X166866667Y-89010000D03*
X166866667Y-91550000D03*
X166866667Y-94090000D03*
X166866667Y-96630000D03*
%TD*%
D12*
%TO.C,J15*%
X124200000Y-122790000D03*
D13*
X124200000Y-125330000D03*
X124200000Y-127870000D03*
X124200000Y-130410000D03*
%TD*%
D17*
%TO.C,TP10*%
X183933334Y-107200000D03*
%TD*%
D16*
%TO.C,D5*%
X158375000Y-114200000D03*
X158375000Y-112625000D03*
%TD*%
D15*
%TO.C,TP14*%
X141266666Y-102200000D03*
%TD*%
D20*
%TO.C,J3*%
X124200000Y-62200000D03*
%TD*%
D14*
%TO.C,R7*%
X175425000Y-115800000D03*
X175425000Y-117450000D03*
%TD*%
%TO.C,R4*%
X149850000Y-115800000D03*
X149850000Y-117450000D03*
%TD*%
D15*
%TO.C,TP12*%
X201000000Y-102200000D03*
%TD*%
D18*
%TO.C,H4*%
X117000000Y-79200000D03*
%TD*%
D12*
%TO.C,J17*%
X141266667Y-122860000D03*
D13*
X141266667Y-125400000D03*
X141266667Y-127940000D03*
X141266667Y-130480000D03*
%TD*%
D15*
%TO.C,TP16*%
X158333333Y-102200000D03*
%TD*%
D17*
%TO.C,TP6*%
X149800000Y-107200000D03*
%TD*%
D14*
%TO.C,R8*%
X183950000Y-115800000D03*
X183950000Y-117450000D03*
%TD*%
D15*
%TO.C,TP13*%
X132733333Y-102200000D03*
%TD*%
D17*
%TO.C,TP2*%
X124200000Y-107200000D03*
%TD*%
D16*
%TO.C,D9*%
X192475000Y-114200000D03*
X192475000Y-112625000D03*
%TD*%
D14*
%TO.C,R1*%
X201000000Y-115800000D03*
X201000000Y-117450000D03*
%TD*%
D12*
%TO.C,J18*%
X149800000Y-122800000D03*
D13*
X149800000Y-125340000D03*
X149800000Y-127880000D03*
X149800000Y-130420000D03*
%TD*%
D18*
%TO.C,H1*%
X208000000Y-141400000D03*
%TD*%
D14*
%TO.C,R5*%
X158375000Y-115800000D03*
X158375000Y-117450000D03*
%TD*%
D15*
%TO.C,TP20*%
X192466667Y-102200000D03*
%TD*%
D12*
%TO.C,J8*%
X158333333Y-73770000D03*
D13*
X158333333Y-76310000D03*
X158333333Y-78850000D03*
X158333333Y-81390000D03*
X158333333Y-83930000D03*
X158333333Y-86470000D03*
X158333333Y-89010000D03*
X158333333Y-91550000D03*
X158333333Y-94090000D03*
X158333333Y-96630000D03*
%TD*%
D17*
%TO.C,TP5*%
X141266666Y-107200000D03*
%TD*%
%TO.C,TP3*%
X201000000Y-107200000D03*
%TD*%
D15*
%TO.C,TP23*%
X141266667Y-136200000D03*
%TD*%
D12*
%TO.C,J16*%
X132743333Y-122860000D03*
D13*
X132743333Y-125400000D03*
X132743333Y-127940000D03*
X132743333Y-130480000D03*
%TD*%
M02*
