ISO-10303-21;
HEADER;
/* Generated by software containing ST-Developer
 * from STEP Tools, Inc. (www.steptools.com) 
 */

FILE_DESCRIPTION(
/* description */ (''),
/* implementation_level */ '2;1');

FILE_NAME(
/* name */ 'LTM.step',
/* time_stamp */ '2026-04-19T13:38:20-05:00',
/* author */ (''),
/* organization */ (''),
/* preprocessor_version */ 'ST-DEVELOPER v20.1',
/* originating_system */ 'Autodesk Translation Framework v14.24.0.0',
/* authorisation */ '');

FILE_SCHEMA (('AUTOMOTIVE_DESIGN { 1 0 10303 214 3 1 1 }'));
ENDSEC;

DATA;
#10=MECHANICAL_DESIGN_GEOMETRIC_PRESENTATION_REPRESENTATION('',(#22,#23),
#229);
#11=SHAPE_REPRESENTATION_RELATIONSHIP('SRR','None',#239,#12);
#12=ADVANCED_BREP_SHAPE_REPRESENTATION('',(#13),#228);
#13=MANIFOLD_SOLID_BREP('Body1',#133);
#14=FACE_BOUND('',#39,.T.);
#15=PLANE('',#150);
#16=PLANE('',#151);
#17=PLANE('',#152);
#18=PLANE('',#153);
#19=PLANE('',#154);
#20=PLANE('',#155);
#21=PLANE('',#156);
#22=STYLED_ITEM('',(#250),#126);
#23=STYLED_ITEM('',(#249),#13);
#24=FACE_OUTER_BOUND('',#32,.T.);
#25=FACE_OUTER_BOUND('',#33,.T.);
#26=FACE_OUTER_BOUND('',#34,.T.);
#27=FACE_OUTER_BOUND('',#35,.T.);
#28=FACE_OUTER_BOUND('',#36,.T.);
#29=FACE_OUTER_BOUND('',#37,.T.);
#30=FACE_OUTER_BOUND('',#38,.T.);
#31=FACE_OUTER_BOUND('',#40,.T.);
#32=EDGE_LOOP('',(#94,#95,#96,#97));
#33=EDGE_LOOP('',(#98));
#34=EDGE_LOOP('',(#99,#100,#101,#102));
#35=EDGE_LOOP('',(#103,#104,#105,#106));
#36=EDGE_LOOP('',(#107,#108,#109,#110));
#37=EDGE_LOOP('',(#111,#112,#113,#114));
#38=EDGE_LOOP('',(#115,#116,#117,#118));
#39=EDGE_LOOP('',(#119));
#40=EDGE_LOOP('',(#120,#121,#122,#123));
#41=LINE('',#197,#54);
#42=LINE('',#203,#55);
#43=LINE('',#205,#56);
#44=LINE('',#207,#57);
#45=LINE('',#208,#58);
#46=LINE('',#211,#59);
#47=LINE('',#213,#60);
#48=LINE('',#214,#61);
#49=LINE('',#217,#62);
#50=LINE('',#219,#63);
#51=LINE('',#220,#64);
#52=LINE('',#222,#65);
#53=LINE('',#223,#66);
#54=VECTOR('',#163,0.0112497997585654);
#55=VECTOR('',#170,0.393700787401575);
#56=VECTOR('',#171,0.393700787401575);
#57=VECTOR('',#172,0.393700787401575);
#58=VECTOR('',#173,0.393700787401575);
#59=VECTOR('',#176,0.393700787401575);
#60=VECTOR('',#177,0.393700787401575);
#61=VECTOR('',#178,0.393700787401575);
#62=VECTOR('',#181,0.393700787401575);
#63=VECTOR('',#182,0.393700787401575);
#64=VECTOR('',#183,0.393700787401575);
#65=VECTOR('',#186,0.393700787401575);
#66=VECTOR('',#187,0.393700787401575);
#67=CIRCLE('',#148,0.0112497997585654);
#68=CIRCLE('',#149,0.0112497997585654);
#69=VERTEX_POINT('',#194);
#70=VERTEX_POINT('',#196);
#71=VERTEX_POINT('',#201);
#72=VERTEX_POINT('',#202);
#73=VERTEX_POINT('',#204);
#74=VERTEX_POINT('',#206);
#75=VERTEX_POINT('',#210);
#76=VERTEX_POINT('',#212);
#77=VERTEX_POINT('',#216);
#78=VERTEX_POINT('',#218);
#79=EDGE_CURVE('',#69,#69,#67,.T.);
#80=EDGE_CURVE('',#69,#70,#41,.T.);
#81=EDGE_CURVE('',#70,#70,#68,.T.);
#82=EDGE_CURVE('',#71,#72,#42,.T.);
#83=EDGE_CURVE('',#71,#73,#43,.T.);
#84=EDGE_CURVE('',#74,#73,#44,.T.);
#85=EDGE_CURVE('',#72,#74,#45,.T.);
#86=EDGE_CURVE('',#72,#75,#46,.T.);
#87=EDGE_CURVE('',#76,#74,#47,.T.);
#88=EDGE_CURVE('',#75,#76,#48,.T.);
#89=EDGE_CURVE('',#75,#77,#49,.T.);
#90=EDGE_CURVE('',#78,#76,#50,.T.);
#91=EDGE_CURVE('',#77,#78,#51,.T.);
#92=EDGE_CURVE('',#77,#71,#52,.T.);
#93=EDGE_CURVE('',#73,#78,#53,.T.);
#94=ORIENTED_EDGE('',*,*,#79,.F.);
#95=ORIENTED_EDGE('',*,*,#80,.T.);
#96=ORIENTED_EDGE('',*,*,#81,.T.);
#97=ORIENTED_EDGE('',*,*,#80,.F.);
#98=ORIENTED_EDGE('',*,*,#81,.F.);
#99=ORIENTED_EDGE('',*,*,#82,.F.);
#100=ORIENTED_EDGE('',*,*,#83,.T.);
#101=ORIENTED_EDGE('',*,*,#84,.F.);
#102=ORIENTED_EDGE('',*,*,#85,.F.);
#103=ORIENTED_EDGE('',*,*,#86,.F.);
#104=ORIENTED_EDGE('',*,*,#85,.T.);
#105=ORIENTED_EDGE('',*,*,#87,.F.);
#106=ORIENTED_EDGE('',*,*,#88,.F.);
#107=ORIENTED_EDGE('',*,*,#89,.F.);
#108=ORIENTED_EDGE('',*,*,#88,.T.);
#109=ORIENTED_EDGE('',*,*,#90,.F.);
#110=ORIENTED_EDGE('',*,*,#91,.F.);
#111=ORIENTED_EDGE('',*,*,#92,.F.);
#112=ORIENTED_EDGE('',*,*,#91,.T.);
#113=ORIENTED_EDGE('',*,*,#93,.F.);
#114=ORIENTED_EDGE('',*,*,#83,.F.);
#115=ORIENTED_EDGE('',*,*,#93,.T.);
#116=ORIENTED_EDGE('',*,*,#90,.T.);
#117=ORIENTED_EDGE('',*,*,#87,.T.);
#118=ORIENTED_EDGE('',*,*,#84,.T.);
#119=ORIENTED_EDGE('',*,*,#79,.T.);
#120=ORIENTED_EDGE('',*,*,#92,.T.);
#121=ORIENTED_EDGE('',*,*,#82,.T.);
#122=ORIENTED_EDGE('',*,*,#86,.T.);
#123=ORIENTED_EDGE('',*,*,#89,.T.);
#124=CYLINDRICAL_SURFACE('',#147,0.0112497997585654);
#125=ADVANCED_FACE('',(#24),#124,.F.);
#126=ADVANCED_FACE('',(#25),#15,.T.);
#127=ADVANCED_FACE('',(#26),#16,.T.);
#128=ADVANCED_FACE('',(#27),#17,.T.);
#129=ADVANCED_FACE('',(#28),#18,.T.);
#130=ADVANCED_FACE('',(#29),#19,.T.);
#131=ADVANCED_FACE('',(#30,#14),#20,.T.);
#132=ADVANCED_FACE('',(#31),#21,.F.);
#133=CLOSED_SHELL('',(#125,#126,#127,#128,#129,#130,#131,#132));
#134=DERIVED_UNIT_ELEMENT(#136,1.);
#135=DERIVED_UNIT_ELEMENT(#233,-3.);
#136=(
MASS_UNIT()
NAMED_UNIT(*)
SI_UNIT(.KILO.,.GRAM.)
);
#137=DERIVED_UNIT((#134,#135));
#138=MEASURE_REPRESENTATION_ITEM('density measure',
POSITIVE_RATIO_MEASURE(7850.),#137);
#139=PROPERTY_DEFINITION_REPRESENTATION(#144,#141);
#140=PROPERTY_DEFINITION_REPRESENTATION(#145,#142);
#141=REPRESENTATION('material name',(#143),#228);
#142=REPRESENTATION('density',(#138),#228);
#143=DESCRIPTIVE_REPRESENTATION_ITEM('Steel','Steel');
#144=PROPERTY_DEFINITION('material property','material name',#241);
#145=PROPERTY_DEFINITION('material property','density of part',#241);
#146=AXIS2_PLACEMENT_3D('',#192,#157,#158);
#147=AXIS2_PLACEMENT_3D('',#193,#159,#160);
#148=AXIS2_PLACEMENT_3D('',#195,#161,#162);
#149=AXIS2_PLACEMENT_3D('',#198,#164,#165);
#150=AXIS2_PLACEMENT_3D('',#199,#166,#167);
#151=AXIS2_PLACEMENT_3D('',#200,#168,#169);
#152=AXIS2_PLACEMENT_3D('',#209,#174,#175);
#153=AXIS2_PLACEMENT_3D('',#215,#179,#180);
#154=AXIS2_PLACEMENT_3D('',#221,#184,#185);
#155=AXIS2_PLACEMENT_3D('',#224,#188,#189);
#156=AXIS2_PLACEMENT_3D('',#225,#190,#191);
#157=DIRECTION('axis',(0.,0.,1.));
#158=DIRECTION('refdir',(1.,0.,0.));
#159=DIRECTION('center_axis',(0.,0.,-1.));
#160=DIRECTION('ref_axis',(-1.,0.,0.));
#161=DIRECTION('center_axis',(0.,0.,-1.));
#162=DIRECTION('ref_axis',(-1.,0.,0.));
#163=DIRECTION('',(0.,0.,-1.));
#164=DIRECTION('center_axis',(0.,0.,-1.));
#165=DIRECTION('ref_axis',(-1.,0.,0.));
#166=DIRECTION('center_axis',(0.,0.,1.));
#167=DIRECTION('ref_axis',(-1.,0.,0.));
#168=DIRECTION('center_axis',(1.,0.,0.));
#169=DIRECTION('ref_axis',(0.,1.,0.));
#170=DIRECTION('',(0.,-1.,0.));
#171=DIRECTION('',(0.,0.,1.));
#172=DIRECTION('',(0.,1.,0.));
#173=DIRECTION('',(0.,0.,1.));
#174=DIRECTION('center_axis',(0.,-1.,0.));
#175=DIRECTION('ref_axis',(1.,0.,0.));
#176=DIRECTION('',(-1.,0.,0.));
#177=DIRECTION('',(1.,0.,0.));
#178=DIRECTION('',(0.,0.,1.));
#179=DIRECTION('center_axis',(-1.,0.,0.));
#180=DIRECTION('ref_axis',(0.,-1.,0.));
#181=DIRECTION('',(0.,1.,0.));
#182=DIRECTION('',(0.,-1.,0.));
#183=DIRECTION('',(0.,0.,1.));
#184=DIRECTION('center_axis',(0.,1.,0.));
#185=DIRECTION('ref_axis',(-1.,0.,0.));
#186=DIRECTION('',(1.,0.,0.));
#187=DIRECTION('',(-1.,0.,0.));
#188=DIRECTION('center_axis',(0.,0.,1.));
#189=DIRECTION('ref_axis',(1.,0.,0.));
#190=DIRECTION('center_axis',(0.,0.,1.));
#191=DIRECTION('ref_axis',(1.,0.,0.));
#192=CARTESIAN_POINT('',(0.,0.,0.));
#193=CARTESIAN_POINT('Origin',(-0.310517401921098,0.536007228119634,0.17007874015748));
#194=CARTESIAN_POINT('',(-0.299267602162533,0.536007228119634,0.17007874015748));
#195=CARTESIAN_POINT('Origin',(-0.310517401921098,0.536007228119634,0.17007874015748));
#196=CARTESIAN_POINT('',(-0.299267602162533,0.536007228119634,0.16907874015748));
#197=CARTESIAN_POINT('',(-0.299267602162533,0.536007228119634,0.17007874015748));
#198=CARTESIAN_POINT('Origin',(-0.310517401921098,0.536007228119634,0.16907874015748));
#199=CARTESIAN_POINT('Origin',(-0.310517401921098,0.536007228119634,0.16907874015748));
#200=CARTESIAN_POINT('Origin',(0.,0.,0.));
#201=CARTESIAN_POINT('',(0.,0.590551181102362,0.));
#202=CARTESIAN_POINT('',(0.,0.,0.));
#203=CARTESIAN_POINT('',(0.,0.590551181102362,0.));
#204=CARTESIAN_POINT('',(0.,0.590551181102362,0.17007874015748));
#205=CARTESIAN_POINT('',(0.,0.590551181102362,0.));
#206=CARTESIAN_POINT('',(0.,0.,0.17007874015748));
#207=CARTESIAN_POINT('',(0.,0.590551181102362,0.17007874015748));
#208=CARTESIAN_POINT('',(0.,0.,0.));
#209=CARTESIAN_POINT('Origin',(-0.354330708661417,0.,0.));
#210=CARTESIAN_POINT('',(-0.354330708661417,0.,0.));
#211=CARTESIAN_POINT('',(0.,0.,0.));
#212=CARTESIAN_POINT('',(-0.354330708661417,0.,0.17007874015748));
#213=CARTESIAN_POINT('',(0.,0.,0.17007874015748));
#214=CARTESIAN_POINT('',(-0.354330708661417,0.,0.));
#215=CARTESIAN_POINT('Origin',(-0.354330708661417,0.590551181102362,0.));
#216=CARTESIAN_POINT('',(-0.354330708661417,0.590551181102362,0.));
#217=CARTESIAN_POINT('',(-0.354330708661417,0.,0.));
#218=CARTESIAN_POINT('',(-0.354330708661417,0.590551181102362,0.17007874015748));
#219=CARTESIAN_POINT('',(-0.354330708661417,0.,0.17007874015748));
#220=CARTESIAN_POINT('',(-0.354330708661417,0.590551181102362,0.));
#221=CARTESIAN_POINT('Origin',(0.,0.590551181102362,0.));
#222=CARTESIAN_POINT('',(-0.354330708661417,0.590551181102362,0.));
#223=CARTESIAN_POINT('',(-0.354330708661417,0.590551181102362,0.17007874015748));
#224=CARTESIAN_POINT('Origin',(-0.177165354330709,0.295275590551181,0.17007874015748));
#225=CARTESIAN_POINT('Origin',(-0.177165354330709,0.295275590551181,0.));
#226=UNCERTAINTY_MEASURE_WITH_UNIT(LENGTH_MEASURE(0.000393700787401575),
#231,'DISTANCE_ACCURACY_VALUE',
'Maximum model space distance between geometric entities at asserted c
onnectivities');
#227=UNCERTAINTY_MEASURE_WITH_UNIT(LENGTH_MEASURE(0.000393700787401575),
#231,'DISTANCE_ACCURACY_VALUE',
'Maximum model space distance between geometric entities at asserted c
onnectivities');
#228=(
GEOMETRIC_REPRESENTATION_CONTEXT(3)
GLOBAL_UNCERTAINTY_ASSIGNED_CONTEXT((#226))
GLOBAL_UNIT_ASSIGNED_CONTEXT((#231,#235,#236))
REPRESENTATION_CONTEXT('','3D')
);
#229=(
GEOMETRIC_REPRESENTATION_CONTEXT(3)
GLOBAL_UNCERTAINTY_ASSIGNED_CONTEXT((#227))
GLOBAL_UNIT_ASSIGNED_CONTEXT((#231,#235,#236))
REPRESENTATION_CONTEXT('','3D')
);
#230=DIMENSIONAL_EXPONENTS(1.,0.,0.,0.,0.,0.,0.);
#231=(
CONVERSION_BASED_UNIT('inch',#234)
LENGTH_UNIT()
NAMED_UNIT(#230)
);
#232=(
LENGTH_UNIT()
NAMED_UNIT(*)
SI_UNIT(.MILLI.,.METRE.)
);
#233=(
LENGTH_UNIT()
NAMED_UNIT(*)
SI_UNIT($,.METRE.)
);
#234=LENGTH_MEASURE_WITH_UNIT(LENGTH_MEASURE(25.4),#232);
#235=(
NAMED_UNIT(*)
PLANE_ANGLE_UNIT()
SI_UNIT($,.RADIAN.)
);
#236=(
NAMED_UNIT(*)
SI_UNIT($,.STERADIAN.)
SOLID_ANGLE_UNIT()
);
#237=SHAPE_DEFINITION_REPRESENTATION(#238,#239);
#238=PRODUCT_DEFINITION_SHAPE('',$,#241);
#239=SHAPE_REPRESENTATION('',(#146),#228);
#240=PRODUCT_DEFINITION_CONTEXT('part definition',#245,'design');
#241=PRODUCT_DEFINITION('LTM','LTM v1',#242,#240);
#242=PRODUCT_DEFINITION_FORMATION('',$,#247);
#243=PRODUCT_RELATED_PRODUCT_CATEGORY('LTM v1','LTM v1',(#247));
#244=APPLICATION_PROTOCOL_DEFINITION('international standard',
'automotive_design',2009,#245);
#245=APPLICATION_CONTEXT(
'Core Data for Automotive Mechanical Design Process');
#246=PRODUCT_CONTEXT('part definition',#245,'mechanical');
#247=PRODUCT('LTM','LTM v1',$,(#246));
#248=PRESENTATION_STYLE_ASSIGNMENT((#251));
#249=PRESENTATION_STYLE_ASSIGNMENT((#252));
#250=PRESENTATION_STYLE_ASSIGNMENT((#253));
#251=SURFACE_STYLE_USAGE(.BOTH.,#254);
#252=SURFACE_STYLE_USAGE(.BOTH.,#255);
#253=SURFACE_STYLE_USAGE(.BOTH.,#256);
#254=SURFACE_SIDE_STYLE('',(#257));
#255=SURFACE_SIDE_STYLE('',(#258));
#256=SURFACE_SIDE_STYLE('',(#259));
#257=SURFACE_STYLE_FILL_AREA(#260);
#258=SURFACE_STYLE_FILL_AREA(#261);
#259=SURFACE_STYLE_FILL_AREA(#262);
#260=FILL_AREA_STYLE('Steel - Satin',(#263));
#261=FILL_AREA_STYLE('Opaque(64,64,64)',(#264));
#262=FILL_AREA_STYLE('ABS (White)',(#265));
#263=FILL_AREA_STYLE_COLOUR('Steel - Satin',#266);
#264=FILL_AREA_STYLE_COLOUR('Opaque(64,64,64)',#267);
#265=FILL_AREA_STYLE_COLOUR('ABS (White)',#268);
#266=COLOUR_RGB('Steel - Satin',0.627450980392157,0.627450980392157,0.627450980392157);
#267=COLOUR_RGB('Opaque(64,64,64)',0.129411764705882,0.12156862745098,0.12156862745098);
#268=COLOUR_RGB('ABS (White)',0.964705882352941,0.964705882352941,0.952941176470588);
ENDSEC;
END-ISO-10303-21;
